PathFileType	4	(X/Y/Z)	/Users/itak/Documents/Research/Walk-IL/dataset/trc/00088_00006.trc
DataRate	CameraRate	NumFrames	NumMarkers	Units	OrigDataRate	OrigDataStartFrame	OrigNumFrames
100.000000	100.000000	4	53	mm	100.000000	444	508
Frame#	Time	RPSI			LPSI			L3			STRN			T10			C7			CLAV			RBAK			LBAK			LSHO			LUPA			LAEL			LAOL			LWTS			LWPS			LFRA			LIFD			LHPS			LHTS			RSHO			RUPA			RAEL			RAOL			RWTS			RWPS			RFRA			RIFD			RHTS			RHPS			RBHD			LFHD			RFHD			LBHD			LHIP			RHIP			RASI			LASI			LKNE			LTHI			LANK			LTIP			LTOE			LMT1			LMT5			LHEE			RKNE			RTHI			RANK			RTIP			RTOE			RMT1			RMT5			RHEE			
		X1	Y1	Z1	X2	Y2	Z2	X3	Y3	Z3	X4	Y4	Z4	X5	Y5	Z5	X6	Y6	Z6	X7	Y7	Z7	X8	Y8	Z8	X9	Y9	Z9	X10	Y10	Z10	X11	Y11	Z11	X12	Y12	Z12	X13	Y13	Z13	X14	Y14	Z14	X15	Y15	Z15	X16	Y16	Z16	X17	Y17	Z17	X18	Y18	Z18	X19	Y19	Z19	X20	Y20	Z20	X21	Y21	Z21	X22	Y22	Z22	X23	Y23	Z23	X24	Y24	Z24	X25	Y25	Z25	X26	Y26	Z26	X27	Y27	Z27	X28	Y28	Z28	X29	Y29	Z29	X30	Y30	Z30	X31	Y31	Z31	X32	Y32	Z32	X33	Y33	Z33	X34	Y34	Z34	X35	Y35	Z35	X36	Y36	Z36	X37	Y37	Z37	X38	Y38	Z38	X39	Y39	Z39	X40	Y40	Z40	X41	Y41	Z41	X42	Y42	Z42	X43	Y43	Z43	X44	Y44	Z44	X45	Y45	Z45	X46	Y46	Z46	X47	Y47	Z47	X48	Y48	Z48	X49	Y49	Z49	X50	Y50	Z50	X51	Y51	Z51	X52	Y52	Z52	X53	Y53	Z53	

445	4.44	37.41120529174805	1029.751831054688	1010.748291015625	211.1216583251953	1014.58056640625	1000.80029296875	134.6675415039062	1084.802368164062	1003.836547851562	134.4837646484375	1295.457641601562	1248.0322265625	149.4967803955078	1213.978637695312	982.53857421875	149.0391235351562	1484.174682617188	1027.612060546875	136.3108520507812	1408.295166015625	1211.865356445312	78.80677032470703	1342.081909179688	966.2658081054688	251.5726318359375	1446.22607421875	1013.02587890625	316.0519104003906	1459.84716796875	1118.659301757812	399.806640625	1335.867553710938	1117.020751953125	431.8384094238281	1128.901000976562	1166.057739257812	351.3443908691406	1098.590576171875	1101.417358398438	369.7957763671875	915.8260498046875	1304.516845703125	429.3032531738281	890.2760009765625	1250.064453125	440.7961120605469	1026.046142578125	1207.665283203125	350.9781799316406	740.5592651367188	1364.46923828125	423.9644775390625	819.9750366210938	1301.67236328125	373.5126342773438	842.2160034179688	1345.722534179688	-29.86849975585938	1447.42724609375	1080.063598632812	-91.39340972900391	1376.817016601562	1064.798828125	-114.7816619873047	1112.065063476562	1041.971557617188	-21.777587890625	1093.050415039062	1072.038452148438	-104.0834808349609	876.9786987304688	1211.017944335938	-138.4346313476562	852.1044921875	1134.410278320312	-123.8535614013672	1033.016357421875	1059.5029296875	-92.10085296630859	691.0835571289062	1244.6357421875	-109.8003311157227	780.2772827148438	1246.524169921875	-149.4555511474609	768.0247802734375	1181.294067382812	67.73216247558594	1645.497314453125	1050.900024414062	170.0154113769531	1717.25	1234.52392578125	47.22132873535156	1701.787475585938	1211.869995117188	202.6628265380859	1669.021240234375	1065.83154296875	303.5082092285156	957.6859130859375	1107.395751953125	-41.42654418945312	965.6472778320312	1085.50927734375	-16.13859939575195	994.084716796875	1207.794677734375	251.0880584716797	977.0000610351562	1217.161499023438	224.9576873779297	507.0935363769531	1227.943237304688	270.0006408691406	640.7486572265625	1185.5244140625	225.9244079589844	48.79281234741211	1123.65771484375	238.3702850341797	261.8413391113281	1174.028564453125	215.3628082275391	44.73901748657227	1331.116455078125	163.1522216796875	43.99581909179688	1280.482788085938	261.6015930175781	40.93309783935547	1225.817016601562	150.2791290283203	47.07841110229492	1070.926391601562	-38.38539505004883	533.0255126953125	1231.407470703125	-67.31678771972656	823.4086303710938	1242.415893554688	-66.14265441894531	48.40244674682617	1147.60546875	-53.71617126464844	409.0625305175781	1214.317993164062	-18.62335586547852	56.80304718017578	1356.93896484375	18.09812545776367	57.31863021850586	1295.13916015625	-77.68563079833984	54.69603729248047	1270.392333984375	-11.10689544677734	48.90594863891602	1099.481811523438	
446	4.45	36.85573577880859	1029.647094726562	1013.172180175781	210.5668029785156	1014.499084472656	1003.095031738281	134.0545501708984	1084.675903320312	1006.150817871094	134.2132873535156	1295.332641601562	1250.284057617188	148.9889068603516	1213.826416015625	984.8142700195312	148.7743988037109	1484.044067382812	1029.855834960938	136.1032257080078	1408.154907226562	1214.119384765625	78.41739654541016	1341.986206054688	968.5546875	251.3017578125	1446.021118164062	1015.205017089844	315.8778381347656	1459.553466796875	1120.802124023438	399.4276123046875	1335.425903320312	1119.095092773438	431.1012573242188	1128.376586914062	1168.207275390625	350.6203308105469	1098.220825195312	1103.576538085938	368.310791015625	915.656005859375	1306.863891601562	427.7506103515625	889.8374633789062	1252.498413085938	439.7601623535156	1025.537475585938	1209.942260742188	348.8677978515625	740.566650390625	1367.036499023438	422.1419067382812	819.6027221679688	1304.202880859375	371.7483215332031	842.0906982421875	1348.197509765625	-30.11997604370117	1447.391845703125	1082.3916015625	-91.70818328857422	1376.848510742188	1067.1298828125	-115.2805557250977	1112.098266601562	1044.081420898438	-22.19927024841309	1093.104614257812	1073.843994140625	-104.4848709106445	876.8172607421875	1212.829223632812	-139.0920562744141	852.090087890625	1136.256469726562	-124.4064865112305	1033.081420898438	1061.547973632812	-92.74302673339844	690.872802734375	1246.214965820312	-110.3065795898438	780.1471557617188	1248.255493164062	-150.09521484375	767.95166015625	1183.098388671875	67.59919738769531	1645.569213867188	1053.386474609375	169.9946441650391	1716.9765625	1237.064086914062	47.17604064941406	1701.625732421875	1214.4453125	202.5394134521484	1668.967651367188	1068.29443359375	303.0961303710938	957.66845703125	1109.599365234375	-41.8448486328125	965.4244995117188	1087.972290039062	-16.45571708679199	993.7664184570312	1210.236083984375	250.8302764892578	976.9401245117188	1219.454711914062	224.7603454589844	506.8438110351562	1229.296508789062	269.6996154785156	640.6046142578125	1187.083984375	225.8708801269531	48.83748626708984	1123.672729492188	238.2195434570312	261.7572326660156	1174.67626953125	215.3760681152344	44.71606063842773	1331.154907226562	163.1322021484375	43.98958206176758	1280.534301757812	261.5752868652344	40.94107055664062	1225.841186523438	150.2300567626953	47.09502410888672	1070.954223632812	-38.26420211791992	532.6502685546875	1232.722900390625	-66.83688354492188	823.1854858398438	1245.45703125	-64.89226531982422	48.3175163269043	1149.836303710938	-53.34227752685547	408.6832885742188	1215.81787109375	-19.1091423034668	53.04972839355469	1360.56640625	18.22141456604004	55.62192153930664	1298.576293945312	-77.30171966552734	53.19680023193359	1273.026977539062	-9.579121589660645	49.04527282714844	1101.947875976562	
447	4.46	36.26747512817383	1029.52978515625	1015.574645996094	209.9949798583984	1014.441040039062	1005.364135742188	133.3897857666016	1084.518310546875	1008.471374511719	133.897705078125	1295.206787109375	1252.498413085938	148.3764953613281	1213.667724609375	987.0425415039062	148.4198150634766	1483.908447265625	1032.046630859375	135.8503875732422	1408.014038085938	1216.3271484375	77.90915679931641	1341.879516601562	970.8179931640625	250.9203491210938	1445.808837890625	1017.304321289062	315.6427612304688	1459.239868164062	1122.851440429688	398.9627990722656	1334.938354492188	1121.02587890625	430.2388305664062	1127.785278320312	1170.157348632812	349.7319641113281	1097.82275390625	1105.565673828125	366.7694396972656	915.3471069335938	1308.932861328125	426.1109008789062	889.293212890625	1254.609741210938	438.6077575683594	1024.9443359375	1211.965942382812	346.7503356933594	740.4017333984375	1369.257934570312	420.2706604003906	819.0988159179688	1306.375610351562	369.9716491699219	841.8099975585938	1350.361083984375	-30.45584487915039	1447.35107421875	1084.723876953125	-92.11508178710938	1376.87158203125	1069.487426757812	-115.8537139892578	1112.12353515625	1046.226196289062	-22.67999267578125	1093.158325195312	1075.652709960938	-104.8689270019531	876.6168823242188	1214.608032226562	-139.8133697509766	852.06591796875	1138.095947265625	-125.0327682495117	1033.136596679688	1063.619995117188	-93.38033294677734	690.5940551757812	1247.676391601562	-110.7626037597656	779.9532470703125	1249.9296875	-150.7661437988281	767.8584594726562	1184.888061523438	67.41245269775391	1645.641357421875	1055.810424804688	169.9397583007812	1716.71630859375	1239.524536132812	47.0909538269043	1701.474853515625	1216.951538085938	202.3605499267578	1668.896362304688	1070.679565429688	302.6822204589844	957.6823120117188	1111.77490234375	-42.25661468505859	965.1488647460938	1090.405639648438	-16.80203628540039	993.3995361328125	1212.6572265625	250.5457153320312	976.8922729492188	1221.722900390625	224.5903930664062	506.60400390625	1230.4677734375	269.3892211914062	640.479248046875	1188.473266601562	225.8237609863281	48.87623596191406	1123.68408203125	238.1076965332031	261.7051391601562	1175.213134765625	215.3902435302734	44.70261383056641	1331.1796875	163.1136016845703	43.98751831054688	1280.575073242188	261.5502319335938	40.95047378540039	1225.860595703125	150.1748809814453	47.11220550537109	1070.969604492188	-38.2289924621582	532.2115478515625	1233.92724609375	-66.04316711425781	822.6382446289062	1247.780883789062	-63.87723159790039	48.285888671875	1151.15771484375	-53.08871459960938	408.2795104980469	1216.995849609375	-19.85104179382324	49.77331924438477	1363.203125	18.10637283325195	54.16061019897461	1301.083129882812	-77.16006469726562	51.90188980102539	1274.70458984375	-8.260146141052246	49.14424896240234	1103.512329101562	
448	4.47	35.65753173828125	1029.4130859375	1017.95263671875	209.4205627441406	1014.415954589844	1007.608642578125	132.6900177001953	1084.337768554688	1010.803161621094	133.5370788574219	1295.089477539062	1254.677978515625	147.6710968017578	1213.515258789062	989.224609375	147.9794464111328	1483.77880859375	1034.189819335938	135.5480041503906	1407.885131835938	1218.492553710938	77.28988647460938	1341.771484375	973.0576171875	250.4329528808594	1445.60009765625	1019.330261230469	315.3433532714844	1458.919311523438	1124.81787109375	398.4115295410156	1334.418701171875	1122.828247070312	429.2522888183594	1127.14208984375	1171.922241210938	348.6710510253906	1097.411987304688	1107.394287109375	365.1737060546875	914.9057006835938	1310.72802734375	424.397216796875	888.6535034179688	1256.401733398438	437.3387756347656	1024.278442382812	1213.74462890625	344.6346435546875	740.0597534179688	1371.125854492188	418.3594665527344	818.4708862304688	1308.191650390625	368.1882629394531	841.3737182617188	1352.212768554688	-30.87371444702148	1447.316650390625	1087.061157226562	-92.610107421875	1376.900024414062	1071.869873046875	-116.495231628418	1112.154907226562	1048.40966796875	-23.22074508666992	1093.211059570312	1077.487060546875	-105.2477951049805	876.3826904296875	1216.352294921875	-140.5838775634766	852.0370483398438	1139.918701171875	-125.7210083007812	1033.193237304688	1065.719116210938	-94.01065826416016	690.258544921875	1249.008056640625	-111.1688919067383	779.6910400390625	1251.536865234375	-151.4559936523438	767.7479858398438	1186.642944335938	67.17209625244141	1645.716674804688	1058.171630859375	169.8528747558594	1716.481323242188	1241.90673828125	46.96592330932617	1701.341430664062	1219.389404296875	202.1272430419922	1668.816650390625	1072.986450195312	302.2745361328125	957.733642578125	1113.924194335938	-42.66422271728516	964.8408813476562	1092.80224609375	-17.17159080505371	993.0048828125	1215.056640625	250.2409820556641	976.8635864257812	1223.968994140625	224.4495239257812	506.3785705566406	1231.447509765625	269.0764465332031	640.3798217773438	1189.69091796875	225.7829284667969	48.90933990478516	1123.692260742188	238.036376953125	261.6846008300781	1175.633666992188	215.4066162109375	44.70065689086914	1331.18701171875	163.0978546142578	43.98873138427734	1280.6025390625	261.5289001464844	40.95972061157227	1225.872802734375	150.1151428222656	47.13726806640625	1070.970825195312	-38.29877471923828	531.7289428710938	1234.97998046875	-64.97130584716797	821.7864379882812	1249.40576171875	-63.1360969543457	48.25107574462891	1151.793823242188	-52.97497177124023	407.8638916015625	1217.863647460938	-20.61360549926758	47.12734985351562	1364.966430664062	17.88543891906738	52.97206115722656	1302.751831054688	-77.15715026855469	50.84163665771484	1275.633178710938	-7.236832618713379	49.1593132019043	1104.35302734375	
